<svg width="1200" height="700" viewBox="0 0 1200 700" fill="none" xmlns="http://www.w3.org/2000/svg">
  <defs>
    <linearGradient id="bg" x1="0" y1="0" x2="1200" y2="700" gradientUnits="userSpaceOnUse">
      <stop stop-color="#1A1208"/>
      <stop offset="1" stop-color="#3A1D1E"/>
    </linearGradient>
    <linearGradient id="accent" x1="220" y1="140" x2="980" y2="590" gradientUnits="userSpaceOnUse">
      <stop stop-color="#FBBF24"/>
      <stop offset="1" stop-color="#FB7185"/>
    </linearGradient>
    <filter id="blur" x="-20%" y="-20%" width="140%" height="140%">
      <feGaussianBlur stdDeviation="40"/>
    </filter>
  </defs>
  <rect width="1200" height="700" rx="36" fill="url(#bg)"/>
  <circle cx="250" cy="150" r="140" fill="#FBBF24" opacity="0.16" filter="url(#blur)"/>
  <circle cx="980" cy="550" r="170" fill="#FB7185" opacity="0.16" filter="url(#blur)"/>
  <rect x="78" y="78" width="1044" height="544" rx="28" stroke="#FFFFFF" stroke-opacity="0.10" stroke-width="2"/>
  <rect x="170" y="165" width="860" height="370" rx="28" fill="#24150E" stroke="url(#accent)" stroke-opacity="0.35" stroke-width="2"/>
  <rect x="208" y="205" width="210" height="46" rx="23" fill="url(#accent)" fill-opacity="0.18" stroke="url(#accent)" stroke-opacity="0.55"/>
  <text x="242" y="235" fill="#FFF2E0" font-family="Inter, Arial, sans-serif" font-size="18" font-weight="700">ML CHALLENGE</text>
  <text x="210" y="332" fill="#FFFFFF" font-family="Inter, Arial, sans-serif" font-size="72" font-weight="800">Shot Prompting</text>
  <text x="210" y="384" fill="#FFE5D1" font-family="Inter, Arial, sans-serif" font-size="28" font-weight="500">Amazon ML challenge write-up</text>
  <text x="210" y="430" fill="#F7C9B6" font-family="Inter, Arial, sans-serif" font-size="22" font-weight="500">Prompting strategy and solution notes</text>
  <g transform="translate(806 214)">
    <rect x="0" y="0" width="198" height="150" rx="24" fill="#2A180F" stroke="#FBBF24" stroke-opacity="0.35"/>
    <path d="M50 101V54H102L150 101H50Z" fill="#FBBF24" opacity="0.9"/>
    <circle cx="106" cy="58" r="14" fill="#FB7185"/>
    <path d="M52 101H148" stroke="#FB7185" stroke-width="8" stroke-linecap="round"/>
  </g>
</svg>
