<svg width="1200" height="700" viewBox="0 0 1200 700" fill="none" xmlns="http://www.w3.org/2000/svg">
  <defs>
    <linearGradient id="bg" x1="0" y1="0" x2="1200" y2="700" gradientUnits="userSpaceOnUse">
      <stop stop-color="#0B1020"/>
      <stop offset="1" stop-color="#1B1A4A"/>
    </linearGradient>
    <linearGradient id="accent" x1="220" y1="140" x2="980" y2="590" gradientUnits="userSpaceOnUse">
      <stop stop-color="#6EE7FF"/>
      <stop offset="1" stop-color="#8B5CF6"/>
    </linearGradient>
    <filter id="blur" x="-20%" y="-20%" width="140%" height="140%">
      <feGaussianBlur stdDeviation="40"/>
    </filter>
  </defs>
  <rect width="1200" height="700" rx="36" fill="url(#bg)"/>
  <circle cx="250" cy="150" r="140" fill="#6EE7FF" opacity="0.16" filter="url(#blur)"/>
  <circle cx="980" cy="550" r="170" fill="#8B5CF6" opacity="0.18" filter="url(#blur)"/>
  <rect x="78" y="78" width="1044" height="544" rx="28" stroke="#FFFFFF" stroke-opacity="0.10" stroke-width="2"/>
  <rect x="170" y="165" width="860" height="370" rx="28" fill="#10163A" stroke="url(#accent)" stroke-opacity="0.35" stroke-width="2"/>
  <rect x="208" y="205" width="186" height="46" rx="23" fill="url(#accent)" fill-opacity="0.18" stroke="url(#accent)" stroke-opacity="0.55"/>
  <text x="242" y="235" fill="#E9F7FF" font-family="Inter, Arial, sans-serif" font-size="18" font-weight="700">AI CHALLENGE</text>
  <text x="210" y="332" fill="#FFFFFF" font-family="Inter, Arial, sans-serif" font-size="70" font-weight="800">Sketch2Site</text>
  <text x="210" y="384" fill="#D8E2FF" font-family="Inter, Arial, sans-serif" font-size="28" font-weight="500">Google DeepMind hackathon entry</text>
  <text x="210" y="430" fill="#B5C4F1" font-family="Inter, Arial, sans-serif" font-size="22" font-weight="500">Turning sketches into a site-ready experience</text>
  <g transform="translate(810 220)">
    <rect x="0" y="0" width="192" height="140" rx="24" fill="#121A46" stroke="#6EE7FF" stroke-opacity="0.35"/>
    <path d="M42 44H150" stroke="#6EE7FF" stroke-width="10" stroke-linecap="round"/>
    <path d="M42 72H120" stroke="#8B5CF6" stroke-width="10" stroke-linecap="round"/>
    <path d="M42 100H96" stroke="#6EE7FF" stroke-width="10" stroke-linecap="round"/>
    <circle cx="158" cy="74" r="16" fill="#8B5CF6"/>
  </g>
</svg>
