<svg width="1200" height="700" viewBox="0 0 1200 700" fill="none" xmlns="http://www.w3.org/2000/svg">
  <defs>
    <linearGradient id="bg" x1="0" y1="0" x2="1200" y2="700" gradientUnits="userSpaceOnUse">
      <stop stop-color="#10131A"/>
      <stop offset="1" stop-color="#14212B"/>
    </linearGradient>
    <linearGradient id="green" x1="190" y1="140" x2="1010" y2="600" gradientUnits="userSpaceOnUse">
      <stop stop-color="#34D399"/>
      <stop offset="1" stop-color="#F59E0B"/>
    </linearGradient>
    <filter id="blur" x="-20%" y="-20%" width="140%" height="140%">
      <feGaussianBlur stdDeviation="40"/>
    </filter>
  </defs>
  <rect width="1200" height="700" rx="36" fill="url(#bg)"/>
  <circle cx="230" cy="160" r="140" fill="#34D399" opacity="0.15" filter="url(#blur)"/>
  <circle cx="980" cy="560" r="170" fill="#F59E0B" opacity="0.12" filter="url(#blur)"/>
  <rect x="78" y="78" width="1044" height="544" rx="28" stroke="#FFFFFF" stroke-opacity="0.10" stroke-width="2"/>
  <rect x="170" y="165" width="860" height="370" rx="28" fill="#0E1720" stroke="url(#green)" stroke-opacity="0.35" stroke-width="2"/>
  <rect x="208" y="205" width="180" height="46" rx="23" fill="url(#green)" fill-opacity="0.18" stroke="url(#green)" stroke-opacity="0.55"/>
  <text x="242" y="235" fill="#DFF8EF" font-family="Inter, Arial, sans-serif" font-size="18" font-weight="700">PRIVATE DEMO</text>
  <text x="210" y="332" fill="#FFFFFF" font-family="Inter, Arial, sans-serif" font-size="72" font-weight="800">Growve</text>
  <text x="210" y="384" fill="#D9E8E5" font-family="Inter, Arial, sans-serif" font-size="28" font-weight="500">FinanceFlow AI for smart banking insights</text>
  <text x="210" y="430" fill="#AFC6C2" font-family="Inter, Arial, sans-serif" font-size="22" font-weight="500">OCR, auto-categorization, tax suggestions, and dashboards</text>
  <g transform="translate(792 214)">
    <rect x="0" y="0" width="190" height="118" rx="22" fill="#152431" stroke="#34D399" stroke-opacity="0.35"/>
    <rect x="22" y="24" width="146" height="14" rx="7" fill="#34D399" opacity="0.85"/>
    <rect x="22" y="50" width="106" height="14" rx="7" fill="#F59E0B" opacity="0.85"/>
    <rect x="22" y="76" width="126" height="14" rx="7" fill="#60A5FA" opacity="0.85"/>
  </g>
  <g transform="translate(826 360)">
    <rect x="0" y="0" width="110" height="110" rx="24" fill="#152431" stroke="#F59E0B" stroke-opacity="0.35"/>
    <path d="M26 77V56L50 34L74 47V77H26Z" fill="#F59E0B" opacity="0.88"/>
  </g>
</svg>
