<svg width="1200" height="700" viewBox="0 0 1200 700" fill="none" xmlns="http://www.w3.org/2000/svg">
  <defs>
    <linearGradient id="bg" x1="0" y1="0" x2="1200" y2="700" gradientUnits="userSpaceOnUse">
      <stop stop-color="#071018"/>
      <stop offset="1" stop-color="#0B2630"/>
    </linearGradient>
    <linearGradient id="accent" x1="220" y1="120" x2="980" y2="610" gradientUnits="userSpaceOnUse">
      <stop stop-color="#66FCF1"/>
      <stop offset="1" stop-color="#9FFDF6"/>
    </linearGradient>
    <filter id="blur" x="-20%" y="-20%" width="140%" height="140%">
      <feGaussianBlur stdDeviation="35"/>
    </filter>
  </defs>
  <rect width="1200" height="700" rx="36" fill="url(#bg)"/>
  <circle cx="240" cy="165" r="130" fill="#66FCF1" opacity="0.12" filter="url(#blur)"/>
  <circle cx="980" cy="560" r="170" fill="#66FCF1" opacity="0.10" filter="url(#blur)"/>
  <rect x="76" y="76" width="1048" height="548" rx="28" stroke="#66FCF1" stroke-opacity="0.16" stroke-width="2"/>
  <g opacity="0.26" stroke="#66FCF1">
    <path d="M180 210H1020"/>
    <path d="M180 300H1020"/>
    <path d="M180 390H1020"/>
    <path d="M180 480H1020"/>
    <path d="M280 150V560"/>
    <path d="M500 150V560"/>
    <path d="M720 150V560"/>
    <path d="M940 150V560"/>
  </g>
  <rect x="170" y="170" width="860" height="360" rx="26" fill="#0A1620" stroke="#66FCF1" stroke-opacity="0.2"/>
  <rect x="208" y="206" width="150" height="46" rx="23" fill="url(#accent)" fill-opacity="0.18" stroke="#66FCF1" stroke-opacity="0.5"/>
  <text x="245" y="236" fill="#66FCF1" font-family="Inter, Arial, sans-serif" font-size="18" font-weight="700">WINNING ENTRY</text>
  <text x="210" y="332" fill="#E9FFFD" font-family="Inter, Arial, sans-serif" font-size="68" font-weight="800">HackRush 2026</text>
  <text x="210" y="390" fill="#B9D9D6" font-family="Inter, Arial, sans-serif" font-size="28" font-weight="500">Computer Vision challenge solution</text>
  <text x="210" y="436" fill="#9CCAC6" font-family="Inter, Arial, sans-serif" font-size="22" font-weight="500">IIT Gandhinagar • primary code + alternate solution</text>
  <g transform="translate(840 232)">
    <circle cx="0" cy="0" r="88" fill="#66FCF1" fill-opacity="0.10" stroke="#66FCF1" stroke-opacity="0.45" stroke-width="2"/>
    <path d="M0 -44L41 0L0 44L-41 0Z" fill="#66FCF1" fill-opacity="0.16" stroke="#66FCF1" stroke-width="2"/>
    <circle cx="0" cy="0" r="16" fill="#66FCF1"/>
  </g>
</svg>
