<svg width="1200" height="700" viewBox="0 0 1200 700" fill="none" xmlns="http://www.w3.org/2000/svg">
  <defs>
    <linearGradient id="bg" x1="0" y1="0" x2="1200" y2="700" gradientUnits="userSpaceOnUse">
      <stop stop-color="#071712"/>
      <stop offset="1" stop-color="#10302A"/>
    </linearGradient>
    <linearGradient id="accent" x1="220" y1="140" x2="980" y2="590" gradientUnits="userSpaceOnUse">
      <stop stop-color="#A3E635"/>
      <stop offset="1" stop-color="#14B8A6"/>
    </linearGradient>
    <filter id="blur" x="-20%" y="-20%" width="140%" height="140%">
      <feGaussianBlur stdDeviation="40"/>
    </filter>
  </defs>
  <rect width="1200" height="700" rx="36" fill="url(#bg)"/>
  <circle cx="250" cy="150" r="140" fill="#A3E635" opacity="0.16" filter="url(#blur)"/>
  <circle cx="980" cy="550" r="170" fill="#14B8A6" opacity="0.16" filter="url(#blur)"/>
  <rect x="78" y="78" width="1044" height="544" rx="28" stroke="#FFFFFF" stroke-opacity="0.10" stroke-width="2"/>
  <rect x="170" y="165" width="860" height="370" rx="28" fill="#0B211C" stroke="url(#accent)" stroke-opacity="0.35" stroke-width="2"/>
  <rect x="208" y="205" width="176" height="46" rx="23" fill="url(#accent)" fill-opacity="0.18" stroke="url(#accent)" stroke-opacity="0.55"/>
  <text x="242" y="235" fill="#E7FFF8" font-family="Inter, Arial, sans-serif" font-size="18" font-weight="700">OPEN SUBMISSION</text>
  <text x="210" y="332" fill="#FFFFFF" font-family="Inter, Arial, sans-serif" font-size="72" font-weight="800">OpenEnv</text>
  <text x="210" y="384" fill="#D7F8EA" font-family="Inter, Arial, sans-serif" font-size="28" font-weight="500">Meta OpenEnv hackathon project</text>
  <text x="210" y="430" fill="#B5DCCA" font-family="Inter, Arial, sans-serif" font-size="22" font-weight="500">A clean environment for model-driven exploration</text>
  <g transform="translate(804 216)">
    <rect x="0" y="0" width="205" height="148" rx="24" fill="#102A22" stroke="#A3E635" stroke-opacity="0.35"/>
    <path d="M46 101L80 45L114 101H46Z" fill="#A3E635" opacity="0.85"/>
    <path d="M98 101L132 55L166 101H98Z" fill="#14B8A6" opacity="0.92"/>
    <circle cx="64" cy="47" r="10" fill="#14B8A6"/>
  </g>
</svg>
