<svg width="1600" height="900" viewBox="0 0 1600 900" fill="none" xmlns="http://www.w3.org/2000/svg">
  <defs>
    <linearGradient id="bg" x1="0" y1="0" x2="1600" y2="900" gradientUnits="userSpaceOnUse">
      <stop stop-color="#F8FAFC"/>
      <stop offset="1" stop-color="#EEF4FB"/>
    </linearGradient>
    <linearGradient id="accentBlue" x1="290" y1="130" x2="1310" y2="770" gradientUnits="userSpaceOnUse">
      <stop stop-color="#D7E9FF"/>
      <stop offset="1" stop-color="#A8D8FF"/>
    </linearGradient>
    <linearGradient id="accentPurple" x1="690" y1="270" x2="950" y2="580" gradientUnits="userSpaceOnUse">
      <stop stop-color="#7C6CFF"/>
      <stop offset="1" stop-color="#F79AC1"/>
    </linearGradient>
    <filter id="shadow" x="-20%" y="-20%" width="140%" height="140%">
      <feDropShadow dx="0" dy="18" stdDeviation="18" flood-color="#7C8CA6" flood-opacity="0.18"/>
    </filter>
    <marker id="arrow" markerWidth="12" markerHeight="12" refX="10" refY="6" orient="auto" markerUnits="strokeWidth">
      <path d="M0,0 L12,6 L0,12 z" fill="#3B4151"/>
    </marker>
  </defs>
  <rect width="1600" height="900" rx="40" fill="url(#bg)"/>

  <g opacity="0.45" stroke="#8BA1BD" stroke-width="2.5" stroke-dasharray="16 14">
    <path d="M40 40V860"/>
    <path d="M360 40V860"/>
    <path d="M760 40V860"/>
    <path d="M1120 40V860"/>
    <path d="M1560 40V860"/>
  </g>

  <g font-family="Inter, Arial, sans-serif" fill="#2B3040">
    <text x="120" y="95" font-size="36" font-weight="700">UI Sketch</text>
    <text x="515" y="95" font-size="36" font-weight="700">Processing</text>
    <text x="970" y="95" font-size="36" font-weight="700">Generation</text>
    <text x="1365" y="95" font-size="36" font-weight="700">Output</text>
  </g>

  <g filter="url(#shadow)">
    <rect x="88" y="150" width="164" height="182" rx="16" fill="#FFF6DF" stroke="#3D4451" stroke-width="5"/>
    <rect x="118" y="176" width="98" height="34" rx="6" fill="none" stroke="#3D4451" stroke-width="4"/>
    <rect x="118" y="226" width="62" height="8" rx="4" fill="#3D4451"/>
    <rect x="118" y="250" width="38" height="8" rx="4" fill="#3D4451"/>
    <rect x="168" y="226" width="52" height="64" rx="6" fill="none" stroke="#3D4451" stroke-width="4"/>
    <rect x="158" y="308" width="56" height="18" rx="4" fill="none" stroke="#3D4451" stroke-width="4"/>
    <text x="84" y="415" font-family="Inter, Arial, sans-serif" font-size="34" font-weight="600" fill="#2D3340">UI Sketch</text>

    <rect x="466" y="155" width="168" height="112" rx="16" fill="url(#accentBlue)" stroke="#3D4451" stroke-width="4"/>
    <text x="494" y="210" font-family="Inter, Arial, sans-serif" font-size="30" font-weight="600" fill="#2D3340">Image</text>
    <text x="486" y="248" font-family="Inter, Arial, sans-serif" font-size="28" font-weight="500" fill="#2D3340">Processing</text>

    <rect x="466" y="310" width="168" height="112" rx="16" fill="url(#accentBlue)" stroke="#3D4451" stroke-width="4"/>
    <text x="486" y="362" font-family="Inter, Arial, sans-serif" font-size="30" font-weight="600" fill="#2D3340">Symbol</text>
    <text x="486" y="400" font-family="Inter, Arial, sans-serif" font-size="28" font-weight="500" fill="#2D3340">Detection</text>

    <rect x="466" y="468" width="168" height="112" rx="16" fill="url(#accentBlue)" stroke="#3D4451" stroke-width="4"/>
    <text x="483" y="520" font-family="Inter, Arial, sans-serif" font-size="28" font-weight="600" fill="#2D3340">Component</text>
    <text x="486" y="558" font-family="Inter, Arial, sans-serif" font-size="28" font-weight="500" fill="#2D3340">Detection</text>

    <circle cx="840" cy="380" r="120" fill="#F6F2FF" stroke="#3D4451" stroke-width="4"/>
    <path d="M812 360C815 315 853 295 892 300C930 305 950 334 948 363C946 392 928 411 905 419C886 426 879 440 879 458C879 489 841 499 817 485C792 471 784 439 794 405" stroke="url(#accentPurple)" stroke-width="34" stroke-linecap="round"/>
    <path d="M904 440C922 429 935 410 939 384C943 359 934 336 914 323" stroke="#5B72F8" stroke-width="34" stroke-linecap="round"/>
    <text x="758" y="540" font-family="Inter, Arial, sans-serif" font-size="42" font-weight="500" fill="#2B3040">Gemini API</text>

    <rect x="1022" y="156" width="166" height="112" rx="16" fill="url(#accentBlue)" stroke="#3D4451" stroke-width="4"/>
    <text x="1054" y="208" font-family="Inter, Arial, sans-serif" font-size="29" font-weight="600" fill="#2D3340">Prompt</text>
    <text x="1045" y="244" font-family="Inter, Arial, sans-serif" font-size="27" font-weight="500" fill="#2D3340">Creation</text>

    <rect x="1022" y="466" width="166" height="112" rx="16" fill="url(#accentBlue)" stroke="#3D4451" stroke-width="4"/>
    <text x="1034" y="518" font-family="Inter, Arial, sans-serif" font-size="29" font-weight="600" fill="#2D3340">HTML/CSS</text>
    <text x="1045" y="554" font-family="Inter, Arial, sans-serif" font-size="27" font-weight="500" fill="#2D3340">Generation</text>

    <rect x="1266" y="302" width="166" height="112" rx="16" fill="#DCEEFF" stroke="#3D4451" stroke-width="4"/>
    <text x="1300" y="357" font-family="Inter, Arial, sans-serif" font-size="30" font-weight="600" fill="#2D3340">Flask</text>
    <text x="1288" y="393" font-family="Inter, Arial, sans-serif" font-size="28" font-weight="500" fill="#2D3340">server</text>

    <rect x="1400" y="188" width="132" height="114" rx="10" fill="#DCEEFF" stroke="#3D4451" stroke-width="4"/>
    <rect x="1418" y="206" width="96" height="66" rx="6" fill="none" stroke="#3D4451" stroke-width="4"/>
    <rect x="1442" y="286" width="48" height="10" rx="5" fill="#3D4451"/>
    <rect x="1458" y="296" width="16" height="24" rx="2" fill="#3D4451"/>
    <text x="1406" y="438" font-family="Inter, Arial, sans-serif" font-size="36" font-weight="600" fill="#2D3340">Output</text>
  </g>

  <g stroke="#3B4151" stroke-width="4" fill="none" stroke-linecap="round" stroke-linejoin="round" marker-end="url(#arrow)">
    <path d="M252 239H446"/>
    <path d="M252 239V470"/>
    <path d="M252 470H446"/>
    <path d="M634 210H718"/>
    <path d="M634 366H720"/>
    <path d="M634 522H720"/>
    <path d="M958 380H1010"/>
    <path d="M884 500H1010"/>
    <path d="M1188 212H1248"/>
    <path d="M1188 522H1248"/>
    <path d="M1266 358H1384"/>
  </g>

  <g font-family="Inter, Arial, sans-serif" fill="#2B3040" font-size="26">
    <text x="125" y="495" font-weight="500">Image</text>
    <text x="86" y="534" font-weight="500">Shrink</text>
  </g>

  <g font-family="Inter, Arial, sans-serif" fill="#2B3040" font-size="22">
    <text x="1140" y="305" font-weight="500">supervised</text>
    <text x="1128" y="470" font-weight="500">supervised</text>
    <text x="1246" y="238" font-weight="500">parsed</text>
    <text x="1250" y="266" font-weight="500">components</text>
  </g>
</svg>
